<svg width="41" height="41" viewBox="0 0 41 41" fill="none" xmlns="http://www.w3.org/2000/svg">
<path fill-rule="evenodd" clip-rule="evenodd" d="M5 0C2.23858 0 0 2.23858 0 5V36C0 38.7614 2.23858 41 5 41H36C38.7614 41 41 38.7614 41 36V5C41 2.23858 38.7614 0 36 0H5ZM16.3325 27.706C17.2845 28.07 18.3975 28.252 19.6715 28.252C21.6455 28.252 23.1715 27.839 24.2495 27.013C25.3415 26.173 25.8875 24.99 25.8875 23.464C25.8875 22.708 25.7615 22.064 25.5095 21.532C25.2575 21 24.9215 20.559 24.5015 20.209C24.0955 19.845 23.6475 19.551 23.1575 19.327C22.6675 19.089 22.1705 18.886 21.6665 18.718C21.1765 18.55 20.7215 18.389 20.3015 18.235C19.8955 18.081 19.5665 17.913 19.3145 17.731C19.0625 17.535 18.9365 17.29 18.9365 16.996C18.9365 16.716 19.0625 16.506 19.3145 16.366C19.5805 16.226 19.9305 16.156 20.3645 16.156C20.9105 16.156 21.4145 16.268 21.8765 16.492C22.3385 16.702 22.8005 17.031 23.2625 17.479L25.9085 14.854C25.2785 14.196 24.4805 13.692 23.5145 13.342C22.5625 12.978 21.5265 12.796 20.4065 12.796C19.2725 12.796 18.2855 12.985 17.4455 13.363C16.6055 13.727 15.9545 14.259 15.4925 14.959C15.0305 15.659 14.7995 16.492 14.7995 17.458C14.7995 18.2 14.9255 18.83 15.1775 19.348C15.4295 19.852 15.7585 20.279 16.1645 20.629C16.5845 20.965 17.0395 21.252 17.5295 21.49C18.0195 21.728 18.5095 21.931 18.9995 22.099C19.5035 22.267 19.9585 22.435 20.3645 22.603C20.7845 22.757 21.1205 22.939 21.3725 23.149C21.6245 23.345 21.7505 23.597 21.7505 23.905C21.7505 24.213 21.6035 24.458 21.3095 24.64C21.0155 24.808 20.5815 24.892 20.0075 24.892C19.3215 24.892 18.6775 24.759 18.0755 24.493C17.4735 24.213 16.8995 23.814 16.3535 23.296L13.7285 25.921C14.5265 26.733 15.3945 27.328 16.3325 27.706Z" fill="white"/>
</svg>
