<svg width="51" height="51" viewBox="0 0 51 51" fill="none" xmlns="http://www.w3.org/2000/svg">
<path fill-rule="evenodd" clip-rule="evenodd" d="M0 8.22581C0 3.68282 3.68282 0 8.22581 0H42.7742C47.3172 0 51 3.68282 51 8.22581V42.7742C51 47.3172 47.3172 51 42.7742 51H8.22581C3.68282 51 0 47.3172 0 42.7742V8.22581ZM34.0581 22.31C33.7425 22.0757 33.3828 21.8821 32.9789 21.7293C32.3472 21.4661 31.654 21.3345 30.8994 21.3345C29.6886 21.3345 28.6181 21.624 27.6881 22.2031C26.758 22.7646 26.0297 23.5543 25.5033 24.5721C24.9768 25.5899 24.7136 26.7569 24.7136 28.073C24.7136 29.3892 24.9768 30.5561 25.5033 31.5739C26.0297 32.5742 26.758 33.3639 27.6881 33.943C28.6181 34.5221 29.6886 34.8116 30.8994 34.8116C31.654 34.8116 32.3472 34.6888 32.9789 34.4431C33.3828 34.2794 33.7425 34.0783 34.0581 33.8399V34.5484H39.0857V21.5977H34.0581V22.31ZM32.0576 30.2841C32.7069 30.2841 33.2246 30.0823 33.6106 29.6787C34.0143 29.2575 34.2161 28.7223 34.2161 28.073C34.2161 27.6343 34.1283 27.257 33.9528 26.9412C33.7774 26.6077 33.5229 26.3445 33.1895 26.1515C32.8736 25.9585 32.5051 25.8619 32.0839 25.8619C31.6628 25.8619 31.2855 25.9585 30.9521 26.1515C30.6362 26.3445 30.3817 26.6077 30.1887 26.9412C29.9957 27.2746 29.8992 27.6519 29.8992 28.073C29.8992 28.4942 29.9869 28.8715 30.1624 29.2049C30.3554 29.5383 30.6186 29.8015 30.9521 29.9946C31.2855 30.1876 31.654 30.2841 32.0576 30.2841ZM11.6477 34.1799C12.841 34.6361 14.2361 34.8643 15.833 34.8643C18.3074 34.8643 20.2201 34.3466 21.5714 33.3112C22.9401 32.2583 23.6245 30.7755 23.6245 28.8627C23.6245 27.9151 23.4666 27.1079 23.1507 26.441C22.8348 25.7742 22.4137 25.2214 21.8872 24.7827C21.3783 24.3265 20.8168 23.9579 20.2026 23.6772C19.5884 23.3788 18.9654 23.1244 18.3337 22.9138C17.7195 22.7032 17.1492 22.5014 16.6227 22.3084C16.1138 22.1154 15.7014 21.9048 15.3855 21.6766C15.0697 21.431 14.9117 21.1239 14.9117 20.7554C14.9117 20.4044 15.0697 20.1412 15.3855 19.9657C15.719 19.7902 16.1577 19.7025 16.7017 19.7025C17.3861 19.7025 18.0178 19.8428 18.5969 20.1236C19.176 20.3868 19.7551 20.7992 20.3342 21.3608L23.6508 18.0705C22.8612 17.2457 21.8609 16.6139 20.6501 16.1752C19.4568 15.719 18.1582 15.4908 16.7543 15.4908C15.3329 15.4908 14.0957 15.7277 13.0428 16.2015C11.9899 16.6578 11.1739 17.3246 10.5948 18.2021C10.0157 19.0795 9.72619 20.1236 9.72619 21.3345C9.72619 22.2645 9.88413 23.0542 10.2 23.7035C10.5159 24.3352 10.9283 24.8705 11.4372 25.3092C11.9636 25.7303 12.5339 26.0901 13.1481 26.3884C13.7623 26.6867 14.3765 26.9412 14.9907 27.1517C15.6225 27.3623 16.1928 27.5729 16.7017 27.7835C17.2281 27.9765 17.6493 28.2046 17.9652 28.4679C18.281 28.7135 18.439 29.0294 18.439 29.4155C18.439 29.8015 18.2547 30.1086 17.8862 30.3368C17.5177 30.5474 16.9737 30.6526 16.2542 30.6526C15.3943 30.6526 14.5871 30.4859 13.8325 30.1525C13.0779 29.8015 12.3585 29.3014 11.6741 28.6521L8.38374 31.9425C9.384 32.9603 10.472 33.7061 11.6477 34.1799Z" fill="#0453F4"/>
<path d="M15.833 34.8643C14.2361 34.8643 12.841 34.6361 11.6477 34.1799C10.472 33.7061 9.384 32.9603 8.38374 31.9425L11.6741 28.6521C12.3585 29.3014 13.0779 29.8015 13.8325 30.1525C14.5871 30.4859 15.3943 30.6526 16.2542 30.6526C16.9737 30.6526 17.5177 30.5474 17.8862 30.3368C18.2547 30.1086 18.439 29.8015 18.439 29.4155C18.439 29.0294 18.281 28.7135 17.9652 28.4679C17.6493 28.2046 17.2281 27.9765 16.7017 27.7835C16.1928 27.5729 15.6225 27.3623 14.9907 27.1517C14.3765 26.9412 13.7623 26.6867 13.1481 26.3884C12.5339 26.0901 11.9636 25.7303 11.4372 25.3092C10.9283 24.8705 10.5159 24.3352 10.2 23.7035C9.88413 23.0542 9.72619 22.2645 9.72619 21.3345C9.72619 20.1236 10.0157 19.0795 10.5948 18.2021C11.1739 17.3246 11.9899 16.6578 13.0428 16.2015C14.0957 15.7277 15.3329 15.4908 16.7543 15.4908C18.1582 15.4908 19.4568 15.719 20.6501 16.1752C21.8609 16.6139 22.8612 17.2457 23.6508 18.0705L20.3342 21.3608C19.7551 20.7992 19.176 20.3868 18.5969 20.1236C18.0178 19.8428 17.3861 19.7025 16.7017 19.7025C16.1577 19.7025 15.719 19.7902 15.3855 19.9657C15.0697 20.1412 14.9117 20.4044 14.9117 20.7554C14.9117 21.1239 15.0697 21.431 15.3855 21.6766C15.7014 21.9048 16.1138 22.1154 16.6227 22.3084C17.1492 22.5014 17.7195 22.7032 18.3337 22.9138C18.9654 23.1244 19.5884 23.3788 20.2026 23.6772C20.8168 23.9579 21.3783 24.3265 21.8872 24.7827C22.4137 25.2214 22.8348 25.7742 23.1507 26.441C23.4666 27.1079 23.6245 27.9151 23.6245 28.8627C23.6245 30.7755 22.9401 32.2583 21.5714 33.3112C20.2201 34.3466 18.3074 34.8643 15.833 34.8643Z" fill="white"/>
<path fill-rule="evenodd" clip-rule="evenodd" d="M27.6881 33.943C28.6181 34.5221 29.6886 34.8116 30.8994 34.8116C31.654 34.8116 32.3472 34.6888 32.9789 34.4431C33.3828 34.2794 33.7425 34.0783 34.0581 33.8399V31.0738L34.7688 27.9151L34.0581 24.7827V22.31C33.7425 22.0757 33.3828 21.8821 32.9789 21.7293C32.3472 21.4661 31.654 21.3345 30.8994 21.3345C29.6886 21.3345 28.6181 21.624 27.6881 22.2031C26.758 22.7646 26.0297 23.5543 25.5033 24.5721C24.9768 25.5899 24.7136 26.7569 24.7136 28.073C24.7136 29.3892 24.9768 30.5561 25.5033 31.5739C26.0297 32.5742 26.758 33.3639 27.6881 33.943ZM33.6106 29.6787C33.2246 30.0823 32.7069 30.2841 32.0576 30.2841C31.654 30.2841 31.2855 30.1876 30.9521 29.9946C30.6186 29.8015 30.3554 29.5383 30.1624 29.2049C29.9869 28.8715 29.8992 28.4942 29.8992 28.073C29.8992 27.6519 29.9957 27.2746 30.1887 26.9412C30.3817 26.6077 30.6362 26.3445 30.9521 26.1515C31.2855 25.9585 31.6628 25.8619 32.0839 25.8619C32.5051 25.8619 32.8736 25.9585 33.1895 26.1515C33.5229 26.3445 33.7774 26.6077 33.9528 26.9412C34.1283 27.257 34.2161 27.6343 34.2161 28.073C34.2161 28.7223 34.0143 29.2575 33.6106 29.6787Z" fill="white"/>
<path d="M34.5846 22.7822C35.0233 23.2385 35.3041 23.7649 35.4269 24.3615V31.7845C35.3041 32.3812 35.0233 32.9076 34.5846 33.3639C34.4254 33.5363 34.2499 33.695 34.0581 33.8399V34.5484H39.0857V21.5977H34.0581V22.31C34.2499 22.4523 34.4254 22.6097 34.5846 22.7822Z" fill="white"/>
<path d="M35.4269 24.3615C35.3041 23.7649 35.0233 23.2385 34.5846 22.7822C34.4254 22.6097 34.2499 22.4523 34.0581 22.31V24.7827L34.7688 27.9151L34.0581 31.0738V33.8399C34.2499 33.695 34.4254 33.5363 34.5846 33.3639C35.0233 32.9076 35.3041 32.3812 35.4269 31.7845V24.3615Z" fill="white"/>
</svg>
